<?xml version="1.0" encoding="utf-8"?>
<!-- Generator: Adobe Illustrator 23.0.1, SVG Export Plug-In . SVG Version: 6.00 Build 0)  -->
<svg version="1.1" baseProfile="tiny" id="Layer_1" xmlns="http://www.w3.org/2000/svg" xmlns:xlink="http://www.w3.org/1999/xlink"
	 x="0px" y="0px" viewBox="0 0 200 31.22" xml:space="preserve">
<g>
	<g>
		<path fill="#FFFFFF" d="M62.56,22.01c0,0.1-0.02,0.15-0.07,0.15c-0.51,0-0.92-0.01-1.21-0.02l-1.71-0.02l-1.81,0.02
			c-0.3,0.02-0.69,0.02-1.19,0.02c-0.05,0-0.07-0.05-0.07-0.15s0.02-0.15,0.07-0.15c0.64,0,1.11-0.04,1.41-0.12
			c0.3-0.08,0.5-0.24,0.61-0.48c0.11-0.24,0.16-0.61,0.16-1.1v-5.79h-9.5v5.79c0,0.5,0.05,0.86,0.16,1.1
			c0.11,0.24,0.31,0.4,0.61,0.48c0.3,0.08,0.77,0.12,1.41,0.12c0.03,0,0.05,0.05,0.05,0.15s-0.02,0.15-0.05,0.15
			c-0.51,0-0.92-0.01-1.21-0.02l-1.78-0.02l-1.71,0.02c-0.3,0.02-0.71,0.02-1.24,0.02c-0.03,0-0.05-0.05-0.05-0.15
			s0.02-0.15,0.05-0.15c0.63,0,1.09-0.04,1.4-0.12c0.3-0.08,0.51-0.24,0.62-0.48c0.11-0.24,0.16-0.61,0.16-1.1V8.7
			c0-0.49-0.05-0.86-0.16-1.09c-0.11-0.23-0.31-0.39-0.61-0.48C46.6,7.04,46.14,7,45.51,7c-0.03,0-0.05-0.05-0.05-0.15
			c0-0.1,0.02-0.15,0.05-0.15l1.26,0.02c0.69,0.03,1.24,0.05,1.66,0.05c0.48,0,1.08-0.02,1.81-0.05l1.19-0.02
			c0.03,0,0.05,0.05,0.05,0.15c0,0.1-0.02,0.15-0.05,0.15c-0.63,0-1.09,0.05-1.4,0.15c-0.31,0.1-0.51,0.27-0.62,0.51
			c-0.11,0.24-0.16,0.61-0.16,1.1v5.1h9.5v-5.1c0-0.49-0.05-0.86-0.16-1.1c-0.11-0.24-0.31-0.41-0.61-0.51
			C57.68,7.05,57.21,7,56.57,7c-0.05,0-0.07-0.05-0.07-0.15c0-0.1,0.02-0.15,0.07-0.15l1.19,0.02c0.73,0.03,1.33,0.05,1.81,0.05
			c0.44,0,1.01-0.02,1.71-0.05l1.21-0.02c0.05,0,0.07,0.05,0.07,0.15c0,0.1-0.02,0.15-0.07,0.15c-0.63,0-1.09,0.05-1.39,0.14
			c-0.3,0.09-0.5,0.25-0.61,0.48c-0.11,0.23-0.16,0.59-0.16,1.09v11.45c0,0.5,0.05,0.86,0.16,1.1c0.11,0.24,0.31,0.4,0.61,0.48
			c0.3,0.08,0.76,0.12,1.39,0.12C62.53,21.86,62.56,21.91,62.56,22.01z"/>
		<path fill="#FFFFFF" d="M67.12,21.64c-0.9-0.54-1.6-1.28-2.09-2.2c-0.49-0.92-0.74-1.92-0.74-2.99c0-1.29,0.33-2.4,1-3.33
			s1.52-1.64,2.55-2.12s2.08-0.72,3.15-0.72c1.15,0,2.17,0.28,3.06,0.85c0.88,0.57,1.56,1.31,2.03,2.21
			c0.47,0.91,0.71,1.86,0.71,2.84c0,1.1-0.3,2.14-0.89,3.1c-0.59,0.96-1.39,1.73-2.4,2.3c-1.01,0.57-2.1,0.85-3.29,0.85
			C69.05,22.46,68.02,22.19,67.12,21.64z M73.92,20.58c0.77-0.91,1.15-2.16,1.15-3.76c0-1.1-0.19-2.11-0.58-3.02
			c-0.39-0.91-0.95-1.63-1.69-2.18c-0.74-0.54-1.62-0.82-2.65-0.82c-1.32,0-2.34,0.44-3.07,1.32c-0.73,0.88-1.09,2.12-1.09,3.7
			c0,1.14,0.19,2.17,0.58,3.09c0.39,0.92,0.95,1.66,1.68,2.2c0.73,0.54,1.6,0.82,2.59,0.82C72.13,21.94,73.16,21.49,73.92,20.58z"/>
		<path fill="#FFFFFF" d="M79.9,11.17c-0.36,0.17-0.65,0.47-0.85,0.88c-0.21,0.41-0.37,1-0.48,1.76c0,0.03-0.05,0.05-0.14,0.05
			c-0.09,0-0.14-0.02-0.14-0.05c0.05-0.38,0.11-0.99,0.17-1.83c0.07-0.84,0.1-1.48,0.1-1.93c0-0.08,0.05-0.12,0.15-0.12
			c0.1,0,0.15,0.04,0.15,0.12c0,0.21,0.12,0.35,0.37,0.41c0.25,0.06,0.55,0.09,0.92,0.09c1.45,0.03,2.7,0.05,3.74,0.05l2.15-0.02
			c0.3-0.02,0.68-0.02,1.16-0.02c0.59,0,1.03-0.04,1.31-0.11c0.28-0.07,0.46-0.24,0.54-0.48c0.03-0.05,0.09-0.07,0.17-0.07
			s0.12,0.02,0.12,0.07c-0.1,1.78-0.15,3.07-0.15,3.86c0,0.03-0.05,0.05-0.14,0.05c-0.09,0-0.14-0.02-0.14-0.05
			c-0.02-0.74-0.1-1.32-0.26-1.73c-0.16-0.41-0.42-0.71-0.78-0.89c-0.36-0.18-0.87-0.27-1.51-0.27c-0.71,0-1.18,0.11-1.41,0.33
			c-0.23,0.22-0.35,0.67-0.35,1.35v7.57c0,0.51,0.05,0.88,0.15,1.11c0.1,0.23,0.29,0.39,0.57,0.47c0.28,0.08,0.74,0.12,1.39,0.12
			c0.05,0,0.07,0.05,0.07,0.15s-0.02,0.15-0.07,0.15c-0.51,0-0.91-0.01-1.19-0.02l-1.73-0.02l-1.66,0.02
			c-0.3,0.02-0.71,0.02-1.24,0.02c-0.03,0-0.05-0.05-0.05-0.15s0.02-0.15,0.05-0.15c0.63,0,1.09-0.04,1.39-0.12
			c0.3-0.08,0.5-0.24,0.61-0.48c0.11-0.24,0.16-0.61,0.16-1.1v-7.62c0-0.48-0.04-0.83-0.11-1.05c-0.07-0.22-0.23-0.38-0.46-0.46
			c-0.23-0.08-0.6-0.12-1.11-0.12C80.75,10.91,80.26,10.99,79.9,11.17z"/>
		<path fill="#FFFFFF" d="M100.27,18.8c0.09,0,0.14,0.03,0.14,0.07c-0.12,1.19-0.17,2.16-0.17,2.92c0,0.13-0.02,0.23-0.07,0.28
			c-0.05,0.06-0.15,0.09-0.3,0.09h-9.05c-0.03,0-0.05-0.05-0.05-0.15s0.02-0.15,0.05-0.15c0.54,0,0.94-0.04,1.19-0.12
			c0.25-0.08,0.42-0.24,0.51-0.48c0.09-0.24,0.14-0.61,0.14-1.1v-7.57c0-0.49-0.05-0.86-0.14-1.09c-0.09-0.23-0.26-0.39-0.51-0.48
			c-0.25-0.09-0.64-0.14-1.19-0.14c-0.03,0-0.05-0.05-0.05-0.15s0.02-0.15,0.05-0.15h8.61c0.16,0,0.25,0.07,0.25,0.2l0.02,1.53
			c0.02,0.31,0.02,0.71,0.02,1.19c0,0.05-0.05,0.07-0.15,0.07c-0.1,0-0.15-0.02-0.15-0.07c-0.07-0.76-0.34-1.38-0.83-1.87
			c-0.49-0.49-1.08-0.73-1.79-0.73H96.1c-0.58,0-1,0.05-1.26,0.14s-0.45,0.25-0.54,0.48c-0.1,0.23-0.15,0.59-0.15,1.09V16
			c1.6-0.02,2.69-0.06,3.28-0.14c0.59-0.07,0.92-0.11,1-0.11c0.08,0,0.12,0.17,0.12,0.52c0,0.38-0.04,0.57-0.12,0.57
			c-0.07,0-0.4-0.05-0.99-0.14c-0.59-0.09-1.69-0.15-3.29-0.19v3.54c0,0.48,0.05,0.84,0.15,1.08c0.1,0.24,0.28,0.4,0.56,0.49
			c0.27,0.09,0.69,0.14,1.25,0.14h1.19c0.66,0,1.25-0.27,1.78-0.8c0.53-0.54,0.88-1.23,1.06-2.09
			C100.13,18.82,100.18,18.8,100.27,18.8z"/>
		<path fill="#FFFFFF" d="M105.62,20.06c0,0.48,0.05,0.83,0.14,1.06c0.09,0.23,0.26,0.4,0.52,0.49c0.26,0.1,0.64,0.15,1.15,0.15
			h1.63c0.87,0,1.57-0.27,2.09-0.82c0.52-0.54,0.87-1.29,1.05-2.25c0-0.03,0.03-0.05,0.1-0.05c0.05,0,0.09,0.01,0.14,0.02
			c0.04,0.02,0.06,0.04,0.06,0.07c-0.12,0.76-0.17,1.77-0.17,3.04c0,0.13-0.03,0.23-0.09,0.28c-0.06,0.06-0.15,0.09-0.28,0.09h-9.67
			c-0.03,0-0.05-0.05-0.05-0.15s0.02-0.15,0.05-0.15c0.54,0,0.94-0.04,1.19-0.12c0.25-0.08,0.41-0.24,0.49-0.48
			c0.08-0.24,0.12-0.61,0.12-1.1v-7.57c0-0.49-0.05-0.86-0.14-1.09c-0.09-0.23-0.26-0.39-0.51-0.48c-0.25-0.09-0.63-0.14-1.16-0.14
			c-0.03,0-0.05-0.05-0.05-0.15s0.02-0.15,0.05-0.15l1.11,0.02c0.63,0.03,1.11,0.05,1.46,0.05c0.41,0,0.93-0.02,1.56-0.05l1.04-0.02
			c0.05,0,0.07,0.05,0.07,0.15s-0.02,0.15-0.07,0.15c-0.54,0-0.94,0.05-1.19,0.14c-0.25,0.09-0.42,0.26-0.51,0.49
			c-0.09,0.24-0.14,0.61-0.14,1.1V20.06z"/>
		<path fill="#FFFFFF" d="M135.61,22.01c0,0.1-0.02,0.15-0.05,0.15h-3.19c-0.41,0-1.18-0.7-2.31-2.12c-1.13-1.41-2.5-3.38-4.12-5.9
			c-0.4,0.12-0.84,0.17-1.34,0.17c-0.31,0-0.68-0.02-1.11-0.05v5.89c0,0.51,0.05,0.88,0.15,1.11c0.1,0.23,0.29,0.39,0.58,0.47
			c0.29,0.08,0.75,0.12,1.37,0.12c0.05,0,0.07,0.05,0.07,0.15s-0.02,0.15-0.07,0.15c-0.51,0-0.92-0.01-1.21-0.02l-1.71-0.02
			l-1.68,0.02c-0.3,0.02-0.72,0.02-1.26,0.02c-0.03,0-0.05-0.05-0.05-0.15s0.02-0.15,0.05-0.15c0.63,0,1.09-0.05,1.39-0.14
			c0.3-0.09,0.5-0.25,0.62-0.48c0.12-0.23,0.17-0.59,0.17-1.09V8.7c0-0.49-0.05-0.86-0.16-1.09c-0.11-0.23-0.3-0.39-0.59-0.48
			C120.86,7.04,120.4,7,119.77,7c-0.05,0-0.07-0.05-0.07-0.15c0-0.1,0.02-0.15,0.07-0.15l1.21,0.02c0.69,0.03,1.25,0.05,1.68,0.05
			c0.3,0,0.58-0.01,0.84-0.02c0.26-0.02,0.49-0.03,0.69-0.05c0.53-0.05,1.01-0.07,1.43-0.07c1.34,0,2.37,0.27,3.09,0.82
			s1.09,1.3,1.09,2.28c0,0.79-0.23,1.54-0.69,2.24c-0.46,0.7-1.07,1.26-1.83,1.67c1.4,2.09,2.58,3.73,3.54,4.91
			c0.96,1.18,1.81,2.03,2.55,2.55c0.74,0.52,1.47,0.78,2.18,0.78C135.59,21.86,135.61,21.91,135.61,22.01z M124.94,13.75
			c1.14,0,1.95-0.24,2.45-0.73c0.49-0.49,0.74-1.3,0.74-2.44c0-2.39-1.01-3.59-3.02-3.59c-0.45,0-0.78,0.04-1,0.11
			s-0.38,0.23-0.48,0.47c-0.1,0.24-0.15,0.63-0.15,1.18v4.9C123.9,13.72,124.38,13.75,124.94,13.75z"/>
		<path fill="#FFFFFF" d="M145.64,18.8c0.09,0,0.14,0.03,0.14,0.07c-0.12,1.19-0.17,2.16-0.17,2.92c0,0.13-0.02,0.23-0.07,0.28
			c-0.05,0.06-0.15,0.09-0.3,0.09h-9.05c-0.03,0-0.05-0.05-0.05-0.15s0.02-0.15,0.05-0.15c0.54,0,0.94-0.04,1.19-0.12
			c0.25-0.08,0.42-0.24,0.51-0.48c0.09-0.24,0.14-0.61,0.14-1.1v-7.57c0-0.49-0.05-0.86-0.14-1.09c-0.09-0.23-0.26-0.39-0.51-0.48
			c-0.25-0.09-0.64-0.14-1.19-0.14c-0.03,0-0.05-0.05-0.05-0.15s0.02-0.15,0.05-0.15h8.61c0.16,0,0.25,0.07,0.25,0.2l0.02,1.53
			c0.02,0.31,0.02,0.71,0.02,1.19c0,0.05-0.05,0.07-0.15,0.07c-0.1,0-0.15-0.02-0.15-0.07c-0.07-0.76-0.34-1.38-0.83-1.87
			c-0.49-0.49-1.08-0.73-1.79-0.73h-0.69c-0.58,0-1,0.05-1.26,0.14s-0.45,0.25-0.54,0.48c-0.1,0.23-0.15,0.59-0.15,1.09V16
			c1.6-0.02,2.69-0.06,3.28-0.14c0.59-0.07,0.92-0.11,1-0.11s0.12,0.17,0.12,0.52c0,0.38-0.04,0.57-0.12,0.57
			c-0.07,0-0.4-0.05-0.99-0.14c-0.59-0.09-1.69-0.15-3.29-0.19v3.54c0,0.48,0.05,0.84,0.15,1.08c0.1,0.24,0.28,0.4,0.56,0.49
			c0.27,0.09,0.69,0.14,1.25,0.14h1.19c0.66,0,1.25-0.27,1.78-0.8c0.53-0.54,0.88-1.23,1.06-2.09
			C145.5,18.82,145.55,18.8,145.64,18.8z"/>
		<path fill="#FFFFFF" d="M150.09,13.89c0.26,0.37,0.57,0.68,0.95,0.93c0.38,0.25,0.88,0.54,1.51,0.87
			c0.68,0.36,1.22,0.68,1.63,0.95s0.76,0.61,1.04,1.03c0.28,0.41,0.42,0.91,0.42,1.48c0,0.61-0.17,1.17-0.51,1.67
			c-0.34,0.5-0.82,0.9-1.45,1.2c-0.63,0.3-1.36,0.45-2.2,0.45c-1.2,0-2.2-0.29-2.99-0.87c-0.08-0.03-0.14-0.08-0.16-0.15
			c-0.02-0.07-0.05-0.17-0.06-0.32l-0.25-2.45c-0.02-0.07,0.02-0.11,0.11-0.12c0.09-0.02,0.15,0.01,0.19,0.07
			c0.23,0.96,0.69,1.77,1.37,2.44c0.68,0.67,1.45,1,2.29,1c0.58,0,1.08-0.17,1.5-0.51c0.42-0.34,0.63-0.86,0.63-1.57
			c0-0.76-0.25-1.38-0.74-1.86c-0.5-0.48-1.21-0.96-2.15-1.46c-0.66-0.36-1.18-0.68-1.57-0.95c-0.39-0.27-0.71-0.61-0.98-1
			c-0.26-0.4-0.4-0.87-0.4-1.43c0-0.94,0.36-1.67,1.09-2.2s1.61-0.79,2.65-0.79c0.87,0,1.7,0.19,2.47,0.57
			c0.15,0.08,0.24,0.14,0.28,0.19c0.04,0.04,0.07,0.12,0.09,0.23l0.17,2.15c0,0.07-0.05,0.11-0.14,0.12
			c-0.09,0.02-0.14-0.01-0.16-0.07c-0.08-0.41-0.27-0.84-0.56-1.27c-0.29-0.44-0.66-0.8-1.11-1.1c-0.45-0.3-0.95-0.45-1.5-0.45
			c-0.59,0-1.05,0.18-1.37,0.54c-0.32,0.36-0.48,0.82-0.48,1.39C149.71,13.08,149.83,13.52,150.09,13.89z"/>
		<path fill="#FFFFFF" d="M160.23,21.64c-0.9-0.54-1.6-1.28-2.09-2.2c-0.49-0.92-0.74-1.92-0.74-2.99c0-1.29,0.33-2.4,1-3.33
			s1.52-1.64,2.55-2.12c1.03-0.48,2.08-0.72,3.15-0.72c1.15,0,2.17,0.28,3.06,0.85c0.88,0.57,1.56,1.31,2.03,2.21
			c0.47,0.91,0.71,1.86,0.71,2.84c0,1.1-0.3,2.14-0.89,3.1c-0.59,0.96-1.39,1.73-2.4,2.3s-2.1,0.85-3.29,0.85
			C162.16,22.46,161.13,22.19,160.23,21.64z M167.03,20.58c0.77-0.91,1.15-2.16,1.15-3.76c0-1.1-0.19-2.11-0.58-3.02
			c-0.39-0.91-0.95-1.63-1.69-2.18c-0.74-0.54-1.62-0.82-2.65-0.82c-1.32,0-2.34,0.44-3.07,1.32c-0.73,0.88-1.09,2.12-1.09,3.7
			c0,1.14,0.19,2.17,0.58,3.09c0.39,0.92,0.95,1.66,1.68,2.2c0.73,0.54,1.6,0.82,2.59,0.82C165.24,21.94,166.27,21.49,167.03,20.58z
			"/>
		<path fill="#FFFFFF" d="M184.26,22.01c0,0.1-0.02,0.15-0.05,0.15h-2.89c-0.3,0-0.82-0.49-1.57-1.48
			c-0.75-0.99-1.65-2.36-2.71-4.11c-0.31,0.07-0.67,0.1-1.06,0.1c-0.41,0-0.73-0.02-0.94-0.05v3.54c0,0.51,0.04,0.88,0.12,1.11
			c0.08,0.23,0.25,0.39,0.49,0.47c0.25,0.08,0.65,0.12,1.21,0.12c0.03,0,0.05,0.05,0.05,0.15s-0.02,0.15-0.05,0.15
			c-0.46,0-0.82-0.01-1.06-0.02l-1.56-0.02l-1.46,0.02c-0.28,0.02-0.66,0.02-1.14,0.02c-0.03,0-0.05-0.05-0.05-0.15
			s0.02-0.15,0.05-0.15c0.54,0,0.94-0.04,1.2-0.12c0.26-0.08,0.43-0.24,0.53-0.48c0.1-0.24,0.15-0.61,0.15-1.1v-7.57
			c0-0.49-0.05-0.86-0.14-1.09c-0.09-0.23-0.26-0.39-0.52-0.48c-0.26-0.09-0.66-0.14-1.2-0.14c-0.03,0-0.05-0.05-0.05-0.15
			s0.02-0.15,0.05-0.15l1.14,0.02c0.59,0.03,1.07,0.05,1.43,0.05c0.3,0,0.57-0.01,0.83-0.02c0.26-0.02,0.47-0.03,0.66-0.05
			c0.51-0.05,1-0.07,1.46-0.07c1.07,0,1.89,0.21,2.45,0.62c0.56,0.41,0.84,1.01,0.84,1.78c0,0.66-0.19,1.27-0.57,1.83
			c-0.38,0.56-0.89,1.01-1.53,1.36c0.92,1.52,1.7,2.68,2.34,3.5c0.63,0.82,1.22,1.4,1.76,1.74c0.54,0.35,1.12,0.52,1.74,0.52
			C184.25,21.86,184.26,21.91,184.26,22.01z M176.15,16.25c1.02,0,1.74-0.23,2.14-0.68c0.4-0.45,0.61-1.12,0.61-1.99
			c0-1.81-0.78-2.72-2.35-2.72c-0.63,0-1.03,0.13-1.22,0.4c-0.19,0.26-0.28,0.73-0.28,1.39v3.54
			C175.33,16.22,175.7,16.25,176.15,16.25z"/>
		<path fill="#FFFFFF" d="M185.55,11.17c-0.36,0.17-0.65,0.47-0.85,0.88c-0.21,0.41-0.37,1-0.48,1.76c0,0.03-0.05,0.05-0.14,0.05
			s-0.14-0.02-0.14-0.05c0.05-0.38,0.11-0.99,0.17-1.83c0.07-0.84,0.1-1.48,0.1-1.93c0-0.08,0.05-0.12,0.15-0.12
			s0.15,0.04,0.15,0.12c0,0.21,0.12,0.35,0.37,0.41c0.25,0.06,0.55,0.09,0.92,0.09c1.45,0.03,2.7,0.05,3.74,0.05l2.15-0.02
			c0.3-0.02,0.68-0.02,1.16-0.02c0.59,0,1.03-0.04,1.31-0.11c0.28-0.07,0.46-0.24,0.54-0.48c0.03-0.05,0.09-0.07,0.17-0.07
			S195,9.89,195,9.94c-0.1,1.78-0.15,3.07-0.15,3.86c0,0.03-0.05,0.05-0.14,0.05c-0.09,0-0.14-0.02-0.14-0.05
			c-0.02-0.74-0.1-1.32-0.26-1.73c-0.16-0.41-0.42-0.71-0.78-0.89c-0.36-0.18-0.87-0.27-1.51-0.27c-0.71,0-1.18,0.11-1.41,0.33
			c-0.23,0.22-0.35,0.67-0.35,1.35v7.57c0,0.51,0.05,0.88,0.15,1.11c0.1,0.23,0.29,0.39,0.57,0.47c0.28,0.08,0.74,0.12,1.39,0.12
			c0.05,0,0.07,0.05,0.07,0.15s-0.02,0.15-0.07,0.15c-0.51,0-0.91-0.01-1.19-0.02l-1.73-0.02l-1.66,0.02
			c-0.3,0.02-0.71,0.02-1.24,0.02c-0.03,0-0.05-0.05-0.05-0.15s0.02-0.15,0.05-0.15c0.63,0,1.09-0.04,1.39-0.12
			c0.3-0.08,0.5-0.24,0.61-0.48c0.11-0.24,0.16-0.61,0.16-1.1v-7.62c0-0.48-0.04-0.83-0.11-1.05c-0.07-0.22-0.23-0.38-0.46-0.46
			c-0.23-0.08-0.6-0.12-1.11-0.12C186.41,10.91,185.91,10.99,185.55,11.17z"/>
	</g>
	<g>
		<path fill="#FFFFFF" d="M23.1,4.16V3.9c0-0.6,0.07-1.04,0.2-1.32c0.13-0.28,0.38-0.48,0.74-0.59c0.36-0.11,0.92-0.16,1.68-0.16
			c0.06,0,0.09-0.06,0.09-0.18c0-0.12-0.03-0.18-0.09-0.18l-1.47,0.03c-0.84,0.04-1.53,0.06-2.07,0.06c-0.58,0-1.31-0.02-2.2-0.06
			l-1.44-0.03c-0.06,0-0.09,0.06-0.09,0.18c0,0.12,0.03,0.18,0.09,0.18c0.78,0,1.35,0.06,1.71,0.18c0.36,0.12,0.61,0.33,0.74,0.62
			c0.13,0.29,0.2,0.74,0.2,1.34v0.12"/>
		<g>
			<path fill="#FFFFFF" d="M12.28,19.9c-0.78,0-1.35-0.05-1.71-0.15c-0.36-0.1-0.61-0.3-0.74-0.59c-0.13-0.29-0.2-0.74-0.2-1.34
				v-7.04h11.55v4.55c0.42,0.02,1.24,0.08,1.92-0.14V7.31c-0.57-0.11-1.47-0.19-1.92-0.15v2.99H9.63V3.96c0-0.6,0.07-1.05,0.2-1.34
				c0.13-0.29,0.38-0.5,0.75-0.62c0.37-0.12,0.94-0.18,1.7-0.18c0.04,0,0.06-0.06,0.06-0.18c0-0.12-0.02-0.18-0.06-0.18l-1.44,0.03
				c-0.88,0.04-1.61,0.06-2.2,0.06c-0.5,0-1.17-0.02-2.01-0.06L5.09,1.46c-0.04,0-0.06,0.06-0.06,0.18c0,0.12,0.02,0.18,0.06,0.18
				c0.76,0,1.32,0.06,1.68,0.16C7.13,2.1,7.38,2.3,7.51,2.58c0.13,0.28,0.2,0.72,0.2,1.32v13.92c0,0.6-0.07,1.05-0.2,1.34
				c-0.13,0.29-0.38,0.49-0.75,0.59c-0.37,0.1-0.94,0.15-1.7,0.15C5.02,19.9,5,19.95,5,20.08c0,0.12,0.02,0.18,0.06,0.18
				c0.64,0,1.14-0.01,1.5-0.03l2.07-0.03l2.17,0.03c0.36,0.02,0.85,0.03,1.47,0.03c0.04,0,0.06-0.06,0.06-0.18
				C12.34,19.95,12.32,19.9,12.28,19.9z"/>
			<path fill="#FFFFFF" d="M25.72,19.9c-0.76,0-1.32-0.05-1.68-0.15c-0.36-0.1-0.93-0.32-0.93-0.92l0-0.24c0,0-0.06-0.15-0.12-0.18
				c-0.5,0.12-1.23,0.26-1.8,0.26l0,0.16c0,0.6-0.57,0.82-0.93,0.92c-0.36,0.1-0.93,0.15-1.71,0.15c-0.06,0-0.09,0.06-0.09,0.18
				c0,0.12,0.03,0.18,0.09,0.18c0.6,0,1.08-0.01,1.44-0.03l2.2-0.03l2.07,0.03c0.36,0.02,0.85,0.03,1.47,0.03
				c0.06,0,0.09-0.06,0.09-0.18C25.81,19.95,25.78,19.9,25.72,19.9z"/>
		</g>
		<path fill="#FFFFFF" d="M21.18,4.08V4.2c0,0,1.89-0.06,1.92-0.04c-0.03-0.01-0.06-0.02-0.1-0.03"/>
		<path fill="#FFFFFF" d="M38.09,29.3c-1.12,0-2.26-0.41-3.42-1.22c-1.17-0.82-2.5-2.15-4-4c-1.5-1.85-3.36-4.42-5.56-7.71
			c1.19-0.65,2.15-1.52,2.87-2.62c0.72-1.1,1.09-2.27,1.09-3.52c0-1.53-0.57-2.72-1.71-3.57c-1.14-0.85-2.76-1.28-4.86-1.28
			c-0.67,0-1.42,0.04-2.25,0.12c-0.31,0.03-0.67,0.05-1.09,0.08c-0.42,0.03-0.86,0.04-1.32,0.04c-0.67,0-1.55-0.03-2.64-0.08
			l-1.9-0.04c-0.08,0-0.12,0.08-0.12,0.23c0,0.16,0.04,0.23,0.12,0.23c0.98,0,1.7,0.07,2.16,0.21c0.45,0.14,0.76,0.4,0.93,0.76
			c0.17,0.36,0.25,0.93,0.25,1.71v0.3h2.49V8.7c0-0.85,0.08-1.47,0.23-1.85c0.16-0.38,0.41-0.62,0.76-0.74
			C20.47,6,21,5.95,21.7,5.95c3.16,0,4.74,1.88,4.74,5.63c0,1.79-0.39,3.06-1.17,3.83c-0.78,0.76-2.06,1.15-3.85,1.15
			c-0.88,0-1.64-0.05-2.29-0.15v-4.4h-2.49v14.62c0,0.78-0.09,1.35-0.27,1.71s-0.5,0.62-0.97,0.76c-0.47,0.14-1.19,0.21-2.18,0.21
			c-0.05,0-0.08,0.08-0.08,0.23c0,0.15,0.03,0.23,0.08,0.23c0.85,0,1.52-0.01,1.98-0.04l2.64-0.04l2.68,0.04
			c0.47,0.03,1.1,0.04,1.9,0.04c0.08,0,0.12-0.08,0.12-0.23c0-0.16-0.04-0.23-0.12-0.23c-0.99,0-1.7-0.07-2.15-0.2
			c-0.46-0.13-0.76-0.38-0.92-0.74c-0.15-0.36-0.23-0.95-0.23-1.75v-9.25c0.67,0.05,1.26,0.08,1.75,0.08c0.78,0,1.48-0.09,2.1-0.27
			c3.01,4.69,5.12,7.59,6.47,9.27c1.77,2.21,2.99,3.32,3.63,3.32h5.01c0.05,0,0.08-0.08,0.08-0.23
			C38.17,29.37,38.14,29.3,38.09,29.3z"/>
	</g>
</g>
</svg>
